<svg width="44" height="25" viewBox="0 0 44 25" fill="none" xmlns="http://www.w3.org/2000/svg">
<path d="M0.818182 24V0.727272H3.63636V21.5H14.4545V24H0.818182ZM20.4091 24.1818C19.8485 24.1818 19.3674 23.9811 18.9659 23.5795C18.5644 23.178 18.3636 22.697 18.3636 22.1364C18.3636 21.5758 18.5644 21.0947 18.9659 20.6932C19.3674 20.2917 19.8485 20.0909 20.4091 20.0909C20.9697 20.0909 21.4508 20.2917 21.8523 20.6932C22.2538 21.0947 22.4545 21.5758 22.4545 22.1364C22.4545 22.5076 22.3598 22.8485 22.1705 23.1591C21.9886 23.4697 21.7424 23.7197 21.4318 23.9091C21.1288 24.0909 20.7879 24.1818 20.4091 24.1818ZM27.6307 24V0.727272H35.4943C37.3201 0.727272 38.8125 1.05682 39.9716 1.71591C41.1383 2.36742 42.0019 3.25 42.5625 4.36364C43.1231 5.47727 43.4034 6.7197 43.4034 8.09091C43.4034 9.46212 43.1231 10.7083 42.5625 11.8295C42.0095 12.9508 41.1534 13.8447 39.9943 14.5114C38.8352 15.1705 37.3504 15.5 35.5398 15.5H29.9034V13H35.4489C36.6989 13 37.7027 12.7841 38.4602 12.3523C39.2178 11.9205 39.767 11.3371 40.108 10.6023C40.4564 9.85985 40.6307 9.02273 40.6307 8.09091C40.6307 7.15909 40.4564 6.32576 40.108 5.59091C39.767 4.85606 39.214 4.2803 38.4489 3.86364C37.6837 3.43939 36.6686 3.22727 35.4034 3.22727H30.4489V24H27.6307Z" fill="black"/>
</svg>
